<?xml version="1.0" encoding="UTF-8"?>
<svg id="Layer_1" xmlns="http://www.w3.org/2000/svg" xmlns:xlink="http://www.w3.org/1999/xlink" version="1.1" viewBox="0 0 500 672">
  <!-- Generator: Adobe Illustrator 29.2.1, SVG Export Plug-In . SVG Version: 2.1.0 Build 116)  -->
  <defs>
    <style>
      .st0 {
        fill: #eab308;
      }
    </style>
  </defs>
  <path class="st0" d="M265.4,157.6c34.1,7.3,61.6,24.7,82.6,52,14.6,18.9,23.6,40.4,27.2,64.1,4.8,31.5-1.7,61.1-14.8,89.5-12.1,26.1-28.4,49.5-47.2,71.2-21.3,24.7-44.8,47.2-70.7,67.2-4.5,3.5-6.7,3.6-11,.2-42.2-33.4-79.5-71.2-107.1-117.8-12.4-20.9-21.7-43-25.5-67.1-4.7-29.2-.9-57.4,12.5-83.9,20.7-40.8,53.6-66,98.3-75.6,18.4-3.9,37-3.7,55.7.2M146.4,242.9c-16,29.2-18.3,59.4-6.1,90.5,18.4,46.8,68.9,73.7,118.1,63.2,55.5-11.9,91.5-66.2,80.8-121.7-10.5-54.5-62.2-91.4-117-83.3-33.2,4.9-58.2,22.3-75.8,51.4Z"/>
  <path class="st0" d="M292.3,240c11.4,13.6,11.8,35.6,2.1,48.2-2.3,3-4.8,5.8-8,7.9-2,1.4-2.8,3-2.7,5.5,0,14.9,0,29.8,0,44.7,0,7.8-4.5,12.6-11.8,12.6-7.2,0-11.9-4.9-11.9-12.6,0-14.3-.1-28.6,0-42.8,0-3.8-1-6.1-4.1-8.5-18.3-13.8-17.1-42.9-2.8-56.8,11.4-11.2,27.5-10.4,39.2,1.9Z"/>
  <path class="st0" d="M196.2,357.4c-4.4-2.7-6.1-6.5-6.1-11.4.1-13.7,0-27.4,0-41,0-2.7-.5-4-3.5-4.6-8.9-1.9-13.9-8.7-14-17.8,0-15.1,0-30.3,0-45.4,0-5.1,3.6-7.9,8-6.5,2.9.9,4.1,3.1,4.1,6.1,0,8.1.1,16.2,0,24.3,0,3.1.7,4.3,4,4.2,8.1-.3,7.1.7,7.2-7.3,0-6.9,0-13.8,0-20.7,0-4.6,2.1-6.9,6-7,3.9,0,6,2.3,6.1,6.9,0,8,.1,16,0,24,0,2.9.6,4.1,3.8,4.1,8.5-.2,7.3.7,7.4-7.4,0-6.9,0-13.8,0-20.7,0-4.6,2.1-6.8,6.1-6.8,3.9,0,6,2.3,6,7,0,15.3,0,30.5,0,45.8,0,8.5-5.4,15.6-13.8,17.2-3.2.6-3.7,2.1-3.7,4.9.1,13.6,0,27.1,0,40.7,0,10.3-7.9,15.6-17.7,11.6Z"/>
</svg>